REM MD5 295d8721ae70608aba8f2be34964eb8f
FILE "Dengeki PlayStation D24 (Japan).bin" BINARY
  TRACK 01 MODE2/2352
    INDEX 01 00:00:00
  TRACK 02 AUDIO
    INDEX 00 62:45:35
    INDEX 01 62:47:35
  TRACK 03 AUDIO
    INDEX 00 65:29:04
    INDEX 01 65:31:04
REM LEADOUT 68:51:09
